Coordinates
version=1
nRows=8
nColumns=40
inDegrees=yes

Units are S.I. units (second, meters, Newtons, ...)
Angles are in degrees.

endheader
time	pelvis_tilt	pelvis_list	pelvis_rotation	pelvis_tx	pelvis_ty	pelvis_tz	hip_flexion_r	hip_adduction_r	hip_rotation_r	knee_angle_r	knee_angle_r_beta	ankle_angle_r	subtalar_angle_r	mtp_angle_r	hip_flexion_l	hip_adduction_l	hip_rotation_l	knee_angle_l	knee_angle_l_beta	ankle_angle_l	subtalar_angle_l	mtp_angle_l	lumbar_extension	lumbar_bending	lumbar_rotation	arm_flex_r	arm_add_r	arm_rot_r	elbow_flex_r	pro_sup_r	wrist_flex_r	wrist_dev_r	arm_flex_l	arm_add_l	arm_rot_l	elbow_flex_l	pro_sup_l	wrist_flex_l	wrist_dev_l
     15.56614286	     -2.84917919	     -4.66171424	     -2.53338108	      0.76815618	      0.93554459	      0.42892418	     30.91662799	     -4.17490925	     -3.64345038	     60.41499820	     60.41499820	      3.41157507	     -8.70743655	     -2.12572640	      8.74620931	     -4.04865907	     -5.71697808	     18.86347795	     18.86347795	     15.29505728	     -7.32438747	     -0.60686246	    -10.25119423	      8.21940327	      2.05300435	     -6.82168363	    -10.41445196	    -14.06950058	     23.17598430	     47.18900234	      0.00000000	      0.00000000	     18.53791576	    -18.59196985	     -8.61835278	     56.37658891	     46.96865622	      0.00000000	      0.00000000
     15.57978571	     -2.84833778	     -4.73788586	     -2.74032161	      0.76790026	      0.93545218	      0.42931467	     31.18182795	     -3.95557383	     -3.98670938	     57.55476213	     57.55476213	      3.77199987	     -8.87440931	     -1.90996968	      8.01982850	     -4.10091308	     -5.83437947	     18.45198187	     18.45198187	     15.59696348	     -7.29611493	     -0.64194222	    -10.28619634	      8.23440542	      2.15715684	     -8.58885977	    -10.16174935	    -14.25954832	     22.47239284	     47.21790017	      0.00000000	      0.00000000	     19.43749198	    -18.81121145	     -8.92960316	     57.35056506	     47.01629119	      0.00000000	      0.00000000
     15.59342857	     -2.96729943	     -4.76943449	     -2.95947098	      0.76753616	      0.93507853	      0.42978707	     31.41826983	     -3.78863426	     -4.45642502	     54.31355063	     54.31355063	      4.14741360	     -8.79607921	     -1.67365941	      7.48813294	     -4.12308442	     -5.97699112	     18.14319269	     18.14319269	     15.86668772	     -7.28242969	     -0.71711166	    -10.16931655	      8.20211286	      2.04923764	    -10.14169614	     -9.96398049	    -14.40106092	     21.95288510	     47.23737663	      0.00000000	      0.00000000	     20.12911156	    -19.13207287	     -9.20813275	     58.18271770	     47.05604816	      0.00000000	      0.00000000
     15.60707143	     -2.99063903	     -4.81259973	     -3.23963736	      0.76729629	      0.93480589	      0.43045888	     31.28289738	     -3.51574269	     -4.92791716	     50.52479418	     50.52479418	      3.99221464	     -8.82945721	     -2.97250644	      6.75143969	     -4.16520360	     -6.24674651	     17.68136149	     17.68136149	     16.06206324	     -7.15911195	     -1.08601802	    -10.31500321	      8.14630139	      2.15245338	    -11.76035263	     -9.68567386	    -15.88078648	     22.08878916	     47.34799507	      0.00000000	      0.00000000	     20.23577815	    -19.17402226	    -10.24278763	     60.86625532	     47.19145405	      0.00000000	      0.00000000
     15.62071429	     -3.12092928	     -4.85755905	     -3.50430286	      0.76699766	      0.93432240	      0.43120780	     31.12837786	     -3.24221708	     -5.57400884	     46.53658232	     46.53658232	      4.38071017	     -8.23783499	     -2.69981224	      6.22000978	     -4.21026038	     -6.40462521	     17.37594355	     17.37594355	     16.33931932	     -7.17988971	     -1.16720921	    -10.23932090	      8.11566116	      2.21767299	    -13.01747681	     -9.61063397	    -16.03650618	     21.63902800	     47.36862680	      0.00000000	      0.00000000	     20.83858790	    -19.34319784	    -10.46313563	     61.67648282	     47.22553291	      0.00000000	      0.00000000
     15.63435714	     -3.27929050	     -4.89339519	     -3.79037417	      0.76672049	      0.93372237	      0.43210971	     30.81249471	     -2.92754870	     -6.32515653	     42.26003160	     42.26003160	      4.70803690	     -7.34007579	     -2.42837911	      5.71025242	     -4.25992734	     -6.60702959	     17.06474750	     17.06474750	     16.59891935	     -7.17359345	     -1.27233634	    -10.16254291	      8.06824543	      2.33278466	    -14.17411637	     -9.56582449	    -16.20659104	     21.34887813	     47.38463557	      0.00000000	      0.00000000	     21.30974703	    -19.42653336	    -10.69636382	     62.66866417	     47.26186444	      0.00000000	      0.00000000
     15.64800000	     -3.54886916	     -4.89915883	     -4.09679664	      0.76644052	      0.93286673	      0.43319239	     30.46409350	     -2.54372082	     -7.06580780	     37.82793443	     37.82793443	      5.00205195	     -6.18023826	     -2.05130698	      5.33838267	     -4.29262197	     -6.79713574	     16.78667984	     16.78667984	     16.86699873	     -7.17239560	     -1.40223138	     -9.97765922	      7.98204020	      2.43891828	    -15.09663968	     -9.48914582	    -16.33810526	     21.19438447	     47.39312024	      0.00000000	      0.00000000	     21.69178443	    -19.56358694	    -10.91317485	     63.58115887	     47.29417630	      0.00000000	      0.00000000
     15.66164286	     -3.62922292	     -4.92899503	     -4.37074221	      0.76644858	      0.93216619	      0.43433662	     29.71125397	     -2.13512886	     -8.02779986	     33.27261714	     33.27261714	      5.20119703	     -4.57901598	     -1.64262087	      4.74016310	     -4.34201822	     -7.04069172	     16.51393810	     16.51393810	     17.15809610	     -7.14806942	     -1.56992684	     -9.99049552	      7.89954432	      2.62366897	    -15.94015808	     -9.54547960	    -16.53182448	     21.13575683	     47.40442865	      0.00000000	      0.00000000	     21.91283853	    -19.51535451	    -11.15506934	     64.78992792	     47.33473901	      0.00000000	      0.00000000
